<?xml version="1.0" encoding="UTF-8"?>
<svg width="93px" height="12px" viewBox="0 0 93 12" version="1.1" xmlns="http://www.w3.org/2000/svg" xmlns:xlink="http://www.w3.org/1999/xlink">
    <title>Group</title>
    <g id="Icons" stroke="none" stroke-width="1" fill="none" fill-rule="evenodd">
        <g id="HORIZONTAL---POS" transform="translate(-11, -6)">
            <g id="Group" transform="translate(11, 6)">
                <g transform="translate(-1, -1)" fill-rule="nonzero" id="-path">
                    <path d="M17.1574739,3.16141236 C16.977966,3.16141236 16.8247275,3.10340479 16.6977585,2.98738966 C16.5664113,2.87137453 16.5051159,2.73464241 16.5051159,2.5730499 C16.5051159,2.4114574 16.5707895,2.27058188 16.6977585,2.15456674 C16.8247275,2.04269501 16.977966,1.98468744 17.1574739,1.98468744 C17.3369819,1.98468744 17.4945986,2.04269501 17.6215676,2.15456674 C17.7485366,2.26643848 17.8142103,2.407314 17.8142103,2.5730499 C17.8142103,2.7387858 17.7485366,2.87137453 17.6215676,2.98738966 C17.4902203,3.10340479 17.3369819,3.16141236 17.1574739,3.16141236 Z" fill="#000000"></path>
                    <polygon fill="#000000" points="16.6846238 9.6043956 16.6846238 4.06881643 17.6259458 4.06881643 17.6259458 9.6043956"></polygon>
                    <path d="M20.2178651,6.28553414 L20.2178651,9.60025221 L19.2765431,9.60025221 L19.2765431,4.06467303 L20.1828392,4.06467303 L20.1828392,5.40713385 L20.0558702,5.40713385 C20.2353781,4.89749595 20.4893161,4.53287696 20.8176843,4.31742028 C21.1460524,4.10196361 21.5313377,3.99423527 21.9779184,3.99423527 C22.3719602,3.99423527 22.7178413,4.07295983 23.0155618,4.22626554 C23.3132823,4.37957125 23.5409508,4.61160151 23.707324,4.91821293 C23.8736972,5.22896775 23.9568838,5.61430373 23.9568838,6.08250766 L23.9568838,9.59610881 L23.0155618,9.59610881 L23.0155618,6.15708881 C23.0155618,5.73031886 22.8973493,5.39884705 22.6609242,5.15852999 C22.4244991,4.91821293 22.1048875,4.7980544 21.6977109,4.7980544 C21.4175035,4.7980544 21.1679437,4.85606197 20.9446533,4.9720771 C20.721363,5.08809224 20.5462333,5.25797154 20.414886,5.47757161 C20.2835388,5.69717168 20.2222434,5.96649252 20.2222434,6.28553414 L20.2178651,6.28553414 Z" fill="#000000"></path>
                    <polygon fill="#000000" points="27.9060582 4.06881643 27.9060582 4.83120159 24.8806929 4.83120159 24.8806929 4.06881643 27.9060582 4.06881643"></polygon>
                    <path d="M26.7064198,2.751216 L26.7064198,8.16663664 C26.7064198,8.4152405 26.7589587,8.59340659 26.8640365,8.70942173 C26.9691144,8.82129346 27.1486223,8.87930103 27.3938038,8.87930103 C27.4550992,8.87930103 27.5295293,8.87101423 27.6214724,8.85858404 C27.7134155,8.84615385 27.7966021,8.83372365 27.8754105,8.81715006 L28.0680531,9.57124842 C27.9717318,9.6043956 27.8578975,9.62925599 27.7353067,9.64582958 C27.6127159,9.66240317 27.4901252,9.67068997 27.3675344,9.67068997 C26.8596583,9.67068997 26.4656165,9.54638804 26.185409,9.29364079 C25.9052015,9.04089353 25.7607196,8.68870474 25.7607196,8.2370744 L25.7607196,2.751216 L26.7064198,2.751216 Z" fill="#000000"></path>
                    <path d="M31.4655689,9.72041074 C30.9007757,9.72041074 30.4147908,9.60025221 30.0032361,9.36407854 C29.5916813,9.12790488 29.2764479,8.79643308 29.0575358,8.36966312 C28.8342455,7.94289317 28.7247894,7.44568546 28.7247894,6.87803999 C28.7247894,6.31039452 28.8342455,5.80904342 29.0487793,5.37813007 C29.2633132,4.94721672 29.5697901,4.60745812 29.9682102,4.36299766 C30.3622519,4.1185372 30.8263456,3.99837867 31.3561129,3.99837867 C31.6669681,3.99837867 31.973445,4.04809944 32.2755437,4.14339759 C32.5776424,4.23869573 32.8490934,4.39614484 33.0986532,4.61160151 C33.3438348,4.82705819 33.5408557,5.11295262 33.6853376,5.46514142 C33.8298196,5.81733021 33.9042498,6.25238696 33.9042498,6.76202486 L33.9042498,7.13493064 L29.3640128,7.13493064 L29.3640128,6.38083228 L33.3963737,6.38083228 L32.9585495,6.65843992 C32.9585495,6.29382093 32.8972541,5.97477932 32.7790415,5.68888489 C32.660829,5.40299045 32.4813211,5.18753378 32.244896,5.02594127 C32.0084709,4.86434877 31.7151287,4.78562421 31.3604911,4.78562421 C31.0058535,4.78562421 30.7081331,4.86849216 30.454195,5.03008467 C30.2046352,5.19167718 30.0119926,5.40713385 29.8806453,5.6681679 C29.7492981,5.92920195 29.6836244,6.21095298 29.6836244,6.51342101 L29.6836244,7.01477211 C29.6836244,7.42496847 29.7580545,7.77301387 29.9069148,8.0589083 C30.055775,8.34480274 30.2659306,8.56025941 30.5373816,8.70527833 C30.8088326,8.85029724 31.1196878,8.9248784 31.4743254,8.9248784 C31.7063722,8.9248784 31.9121496,8.89173122 32.100414,8.82958026 C32.2886784,8.76742929 32.4506734,8.67213115 32.5863989,8.54368582 C32.7221244,8.4152405 32.8272022,8.25779139 32.9016323,8.0713385 L33.8123067,8.30751216 C33.7203636,8.5851198 33.5671251,8.82958026 33.3525913,9.04089353 C33.1380574,9.25220681 32.8709846,9.41794271 32.551373,9.53395785 C32.2317613,9.65411638 31.8727454,9.71212394 31.4699472,9.71212394 L31.4655689,9.72041074 Z" fill="#000000"></path>
                    <path d="M35.2527483,9.6043956 L35.2527483,4.06881643 L36.1634226,4.06881643 L36.1634226,4.91821293 L36.224718,4.91821293 C36.3341741,4.6364619 36.5268167,4.41271843 36.802646,4.24283913 C37.0784752,4.07295983 37.3937087,3.98594848 37.7395898,3.98594848 C37.8096417,3.98594848 37.8928282,3.98594848 37.9891496,3.99009188 C38.0854709,3.99009188 38.159901,3.99837867 38.2168182,3.99837867 L38.2168182,4.89335255 C38.1905487,4.88506575 38.1204968,4.87677896 38.0066625,4.86434877 C37.8928282,4.85191857 37.7746157,4.84363178 37.6520249,4.84363178 C37.3718174,4.84363178 37.1222577,4.89749595 36.9033455,5.00936768 C36.6800552,5.12123942 36.5093038,5.27040173 36.3823347,5.46514142 C36.2553657,5.6598811 36.1940703,5.87948117 36.1940703,6.13222843 L36.1940703,9.59610881 L35.2527483,9.59610881 L35.2527483,9.6043956 Z" fill="#000000"></path>
                    <path d="M39.8630372,3.16141236 C39.6835292,3.16141236 39.5302908,3.10340479 39.4033218,2.98738966 C39.2719745,2.87137453 39.2106791,2.73464241 39.2106791,2.5730499 C39.2106791,2.4114574 39.2763527,2.27058188 39.4033218,2.15456674 C39.5302908,2.04269501 39.6835292,1.98468744 39.8630372,1.98468744 C40.0425451,1.98468744 40.2001618,2.04269501 40.3271308,2.15456674 C40.4540998,2.26643848 40.5197735,2.407314 40.5197735,2.5730499 C40.5197735,2.7387858 40.4540998,2.87137453 40.3271308,2.98738966 C40.1957836,3.10340479 40.0425451,3.16141236 39.8630372,3.16141236 Z" fill="#000000"></path>
                    <polygon fill="#000000" points="39.390187 9.6043956 39.390187 4.06881643 40.3315091 4.06881643 40.3315091 9.6043956"></polygon>
                    <path d="M44.4426783,9.72041074 C43.8778851,9.72041074 43.3919003,9.60025221 42.9803455,9.36407854 C42.5687907,9.12790488 42.2535573,8.79643308 42.0346452,8.36966312 C41.8113549,7.94289317 41.7018988,7.44568546 41.7018988,6.87803999 C41.7018988,6.31039452 41.8113549,5.80904342 42.0258887,5.37813007 C42.2404226,4.94721672 42.5468995,4.60745812 42.9453196,4.36299766 C43.3393613,4.1185372 43.803455,3.99837867 44.3332223,3.99837867 C44.6440775,3.99837867 44.9505544,4.04809944 45.2526531,4.14339759 C45.5547518,4.23869573 45.8262028,4.39614484 46.0757626,4.61160151 C46.3209442,4.82705819 46.5179651,5.11295262 46.6624471,5.46514142 C46.806929,5.81733021 46.8813592,6.25238696 46.8813592,6.76202486 L46.8813592,7.13493064 L42.3411222,7.13493064 L42.3411222,6.38083228 L46.3734831,6.38083228 L45.9356589,6.65843992 C45.9356589,6.29382093 45.8743635,5.97477932 45.756151,5.68888489 C45.6379384,5.40299045 45.4584305,5.18753378 45.2220054,5.02594127 C44.9855804,4.86434877 44.6878599,4.78562421 44.3376005,4.78562421 C43.9873412,4.78562421 43.6852425,4.86849216 43.4313044,5.03008467 C43.1817446,5.19167718 42.989102,5.40713385 42.8577547,5.6681679 C42.7264075,5.92920195 42.6607338,6.21095298 42.6607338,6.51342101 L42.6607338,7.01477211 C42.6607338,7.42496847 42.7351639,7.77301387 42.8840242,8.0589083 C43.0328844,8.34480274 43.24304,8.56025941 43.514491,8.70527833 C43.785942,8.85029724 44.0967972,8.9248784 44.4514348,8.9248784 C44.6834817,8.9248784 44.889259,8.89173122 45.0775234,8.82958026 C45.2657878,8.76742929 45.4277828,8.67213115 45.5635083,8.54368582 C45.6992338,8.4152405 45.8043116,8.25779139 45.8787417,8.0713385 L46.7894161,8.30751216 C46.697473,8.5851198 46.5442345,8.82958026 46.3297007,9.04089353 C46.1151668,9.25220681 45.848094,9.41794271 45.5284824,9.53395785 C45.2088707,9.65411638 44.8498549,9.71212394 44.4470566,9.71212394 L44.4426783,9.72041074 Z" fill="#000000"></path>
                    <path d="M50.2088231,9.67068997 C49.8147813,9.67068997 49.4689002,9.59196541 49.1711797,9.4386597 C48.8734593,9.28535399 48.6414125,9.05332373 48.4750393,8.74256891 C48.3086661,8.43181409 48.2254795,8.04647811 48.2254795,7.57827418 L48.2254795,4.06467303 L49.1668015,4.06467303 L49.1668015,7.50369303 C49.1668015,7.93046298 49.285014,8.26193479 49.5214391,8.50225185 C49.7578642,8.74256891 50.0818541,8.86272744 50.4890306,8.86272744 C50.7692381,8.86272744 51.0187979,8.80471987 51.23771,8.68870474 C51.4610003,8.57268961 51.63613,8.4028103 51.763099,8.18321023 C51.8900681,7.96361016 51.9557417,7.69428932 51.9557417,7.3793911 L51.9557417,4.06467303 L52.901442,4.06467303 L52.901442,9.60025221 L51.9907676,9.60025221 L51.9907676,8.25779139 L52.1177366,8.25779139 C51.9382287,8.77571609 51.6799124,9.14033507 51.347166,9.35164835 C51.0144196,9.56296163 50.6335126,9.66654657 50.2044449,9.66654657 L50.2088231,9.67068997 Z" fill="#000000"></path>
                    <path d="M54.5607957,9.6043956 L54.5607957,4.06881643 L55.47147,4.06881643 L55.47147,4.91821293 L55.5327654,4.91821293 C55.6422215,4.6364619 55.8348641,4.41271843 56.1106934,4.24283913 C56.3865226,4.07295983 56.7017561,3.98594848 57.0476372,3.98594848 C57.117689,3.98594848 57.2008756,3.98594848 57.297197,3.99009188 C57.3935183,3.99009188 57.4679484,3.99837867 57.5248656,3.99837867 L57.5248656,4.89335255 C57.4985961,4.88506575 57.4285442,4.87677896 57.3147099,4.86434877 C57.2008756,4.85191857 57.0826631,4.84363178 56.9600723,4.84363178 C56.6798648,4.84363178 56.430305,4.89749595 56.2113929,5.00936768 C55.9881026,5.12123942 55.8173512,5.27040173 55.6903821,5.46514142 C55.5634131,5.6598811 55.5021177,5.87948117 55.5021177,6.13222843 L55.5021177,9.59610881 L54.5607957,9.59610881 L54.5607957,9.6043956 Z" fill="#000000"></path>
                    <path d="M58.6413173,9.66654657 C58.4442964,9.66654657 58.2779232,9.60025221 58.1421977,9.47180688 C58.0064722,9.34336156 57.9364203,9.18591245 57.9364203,8.99945956 C57.9364203,8.81300667 58.0064722,8.65555756 58.1421977,8.52711223 C58.2779232,8.39866691 58.4486746,8.33237255 58.6413173,8.33237255 C58.8339599,8.33237255 59.0047114,8.39866691 59.1404369,8.52711223 C59.2805406,8.65555756 59.3462142,8.81715006 59.3462142,8.99945956 C59.3462142,9.18176905 59.2761624,9.34336156 59.1404369,9.47180688 C59.0047114,9.60025221 58.8383382,9.66654657 58.6413173,9.66654657 Z" fill="#000000"></path>
                    <path d="M63.4967877,9.71212394 C62.9013468,9.71212394 62.3847142,9.59610881 61.9556465,9.36407854 C61.5264379,9.13692452 61.1788028,8.79350686 60.9574073,8.37794992 C60.7253605,7.95117997 60.6115262,7.44568546 60.6115262,6.8614664 C60.6115262,6.27724734 60.7253605,5.79246983 60.9574073,5.36155648 C61.1894541,4.93064313 61.5134441,4.59917132 61.9337553,4.35885426 C62.3540665,4.1185372 62.8531861,3.99837867 63.4179793,3.99837867 C63.8032646,3.99837867 64.1579023,4.05638624 64.4906486,4.17240137 C64.823395,4.2884165 65.112359,4.4624392 65.3662971,4.69446946 C65.6202351,4.92649973 65.8128777,5.21653756 65.9529815,5.56872636 C66.0930852,5.91677175 66.1631371,6.33111151 66.1631371,6.80760223 L66.1631371,7.22194199 L61.2507495,7.22194199 L61.2507495,6.28967754 L65.3925665,6.28967754 L64.6614001,6.53828139 C64.6614001,6.25238696 64.6132394,5.9996397 64.5212963,5.78832643 C64.4293533,5.57701315 64.2892495,5.41127725 64.1097416,5.29526211 C63.9258554,5.17924698 63.7025651,5.12123942 63.4311141,5.12123942 C63.1596631,5.12123942 62.9276162,5.17924698 62.7393518,5.29940551 C62.5510874,5.41956404 62.4066054,5.57701315 62.3059059,5.78003963 C62.2052063,5.98306611 62.1614239,6.21509638 62.1614239,6.47613043 L62.1614239,7.13493064 C62.1614239,7.45397226 62.218341,7.7232931 62.3321753,7.94289317 C62.4460096,8.16249324 62.6036263,8.32408575 62.8094037,8.43181409 C63.0151811,8.53954242 63.2516061,8.59340659 63.5230572,8.59340659 C63.7069433,8.59340659 63.8733165,8.56854621 64.026555,8.51882544 C64.1754152,8.46910467 64.3067625,8.39452351 64.4118403,8.29922536 C64.5169181,8.20392722 64.6001047,8.08376869 64.6570218,7.93874977 L66.0799505,8.19149703 C65.9884934,8.49217041 65.820062,8.76684551 65.5895874,8.99117276 C65.3575406,9.21905963 65.0641984,9.39722573 64.713939,9.52152765 C64.3636796,9.64582958 63.9608814,9.70798054 63.5011659,9.70798054 L63.4967877,9.71212394 Z" fill="#0000FF"></path>
                    <path d="M66.5703136,9.6043956 L68.8338648,6.1860926 L68.8338648,7.34624392 L66.6841479,4.07295983 L68.3785276,4.07295983 L68.9082949,4.94307332 C69.0746681,5.22896775 69.2279065,5.51486219 69.3592538,5.79246983 C69.4949793,6.07007746 69.6307048,6.3435417 69.7708085,6.60871915 L69.1753676,6.60871915 C69.3198496,6.3476851 69.4555751,6.07836426 69.5869224,5.79661322 C69.7182696,5.51486219 69.8715081,5.23311115 70.0466378,4.94721672 L70.5939181,4.07710322 L72.25765,4.07710322 L70.0729072,7.36281751 L70.0729072,6.21923978 L72.3408366,9.608539 L70.6552134,9.608539 L70.0072336,8.56854621 C69.8364822,8.28679517 69.6832437,8.00090074 69.54314,7.7232931 C69.4030362,7.44568546 69.2629325,7.17222122 69.1228287,6.91533057 L69.7226479,6.91533057 C69.5869224,7.17222122 69.4511969,7.44154206 69.3242279,7.7232931 C69.1972588,8.00504414 69.0440204,8.28679517 68.8776472,8.56854621 L68.2296673,9.608539 L66.5659354,9.608539 L66.5703136,9.6043956 Z" fill="#0000FF"></path>
                    <path d="M73.233998,11.671951 L73.233998,4.06881643 L74.7751392,4.06881643 L74.7751392,5.00108089 L74.8495693,5.00108089 C74.9239994,4.85606197 75.024699,4.70689966 75.1604245,4.54945055 C75.29615,4.39614484 75.4712797,4.26355612 75.6901918,4.15997118 C75.9091039,4.05638624 76.1849331,4.00252207 76.5176795,4.00252207 C76.9511255,4.00252207 77.3451673,4.11025041 77.7041831,4.31742028 C78.063199,4.52873356 78.3521629,4.84363178 78.5623186,5.26625833 C78.7768524,5.68888489 78.8819302,6.21509638 78.8819302,6.84489281 C78.8819302,7.47468925 78.7768524,7.97604035 78.5666968,8.4028103 C78.3565412,8.82543686 78.0719555,9.14862187 77.7129396,9.36822194 C77.3539238,9.58782201 76.9511255,9.69555035 76.5001666,9.69555035 C76.1849331,9.69555035 75.9134821,9.64582958 75.69457,9.54224464 C75.4756579,9.4386597 75.29615,9.31435777 75.1604245,9.16519546 C75.024699,9.01603315 74.9152429,8.86687083 74.8451911,8.71770852 L74.7970304,8.71770852 L74.7970304,11.671951 L73.2296198,11.671951 L73.233998,11.671951 Z" fill="#0000FF"></path>
                    <path d="M76.0273164,8.50225185 C76.2987674,8.50225185 76.526436,8.43181409 76.7147004,8.29093857 C76.9029648,8.15006305 77.0430686,7.95117997 77.1393899,7.70257611 C77.2357112,7.44982886 77.2838719,7.16393443 77.2838719,6.84074941 C77.2838719,6.5175644 77.2357112,6.23166997 77.1393899,5.98306611 C77.0430686,5.73446226 76.9029648,5.53972257 76.7190787,5.39884705 C76.5351925,5.25797154 76.3031457,5.18753378 76.0273164,5.18753378 C75.7514872,5.18753378 75.5325751,5.25797154 75.3399324,5.39470366 C75.151668,5.53143578 75.007186,5.72203207 74.9108647,5.97063592 C74.8145434,6.21509638 74.7663827,6.50927761 74.7663827,6.84489281 C74.7663827,7.18050802 74.8145434,7.47054585 74.9152429,7.7191497 C75.0159425,7.96775356 75.1604245,8.16249324 75.3486889,8.29922536 C75.5369533,8.43595749 75.7646219,8.50639524 76.0273164,8.50639524 L76.0273164,8.50225185 Z" fill="#FFFFFF"></path>
                    <path d="M82.6297054,9.71212394 C82.0342645,9.71212394 81.5176319,9.59610881 81.0885642,9.36407854 C80.6593557,9.13692452 80.3117205,8.79350686 80.090325,8.37794992 C79.8582782,7.95117997 79.7444439,7.44568546 79.7444439,6.8614664 C79.7444439,6.27724734 79.8582782,5.79246983 80.090325,5.36155648 C80.3223719,4.93064313 80.6463618,4.59917132 81.066673,4.35885426 C81.4869842,4.1185372 81.9817256,3.99837867 82.5508971,3.99837867 C82.9361824,3.99837867 83.29082,4.05638624 83.6235664,4.17240137 C83.9563128,4.2884165 84.2452767,4.4624392 84.4992148,4.69446946 C84.7531528,4.92649973 84.9457955,5.21653756 85.0858992,5.56872636 C85.226003,5.91677175 85.2960548,6.33111151 85.2960548,6.80760223 L85.2960548,7.22194199 L80.3836673,7.22194199 L80.3836673,6.28967754 L84.5254842,6.28967754 L83.7943178,6.53828139 C83.7943178,6.25238696 83.7461571,5.9996397 83.6542141,5.78832643 C83.562271,5.57701315 83.4221672,5.41127725 83.2426593,5.29526211 C83.0587731,5.17924698 82.8354828,5.12123942 82.5640318,5.12123942 C82.2925808,5.12123942 82.060534,5.17924698 81.8722695,5.29940551 C81.6840051,5.41956404 81.5395232,5.57701315 81.4388236,5.78003963 C81.3425023,5.98306611 81.2943416,6.21509638 81.2943416,6.47613043 L81.2943416,7.13493064 C81.2943416,7.45397226 81.3512587,7.7232931 81.465093,7.94289317 C81.5789273,8.16249324 81.736544,8.32408575 81.9423214,8.43181409 C82.1480988,8.53954242 82.3845239,8.59340659 82.6559749,8.59340659 C82.839861,8.59340659 83.0062342,8.56854621 83.1594727,8.51882544 C83.3083329,8.46910467 83.4396802,8.39452351 83.544758,8.29922536 C83.6498358,8.20392722 83.7330224,8.08376869 83.7899396,7.93874977 L85.2128682,8.19149703 C85.1165469,8.49396505 84.9545519,8.76328589 84.7225051,8.99117276 C84.4904583,9.21905963 84.1971161,9.39722573 83.8468567,9.52152765 C83.4965973,9.64582958 83.0937991,9.70798054 82.6340837,9.70798054 L82.6297054,9.71212394 Z" fill="#0000FF"></path>
                    <path d="M86.3687241,9.6043956 L86.3687241,4.06881643 L87.8835959,4.06881643 L87.8835959,5.03422807 L87.9448913,5.03422807 C88.0543473,4.69032607 88.2338552,4.43343542 88.4877933,4.25526932 C88.7407226,4.08133657 89.0464457,3.98974139 89.3590634,3.99423527 C89.4378718,3.99423527 89.5254366,3.99837867 89.621758,4.00666547 C89.7180793,4.01495226 89.7968876,4.02738245 89.8669395,4.04395604 L89.8669395,5.36984327 C89.7968876,5.34498289 89.6961881,5.3284093 89.5648408,5.3159791 C89.4334936,5.30354891 89.3065245,5.29526211 89.188312,5.29526211 C88.9518869,5.29526211 88.7373531,5.34498289 88.5447104,5.44028103 C88.3520678,5.53557917 88.2032075,5.6723113 88.0981297,5.84633399 C87.9930519,6.02035669 87.940513,6.22338317 87.940513,6.45127004 L87.940513,9.60025221 L86.3731024,9.60025221 L86.3687241,9.6043956 Z" fill="#0000FF"></path>
                    <polygon fill="#0000FF" points="93.8423833 4.06881643 93.8423833 5.20410737 90.3748156 5.20410737 90.3748156 4.06881643"></polygon>
                    <path d="M91.1804121,2.751216 L92.7478228,2.751216 L92.7478228,7.98432715 C92.7478228,8.15834985 92.787227,8.28679517 92.8704136,8.37380652 C92.9536002,8.46081787 93.0893257,8.49810845 93.2819683,8.49810845 C93.3432637,8.49810845 93.4264503,8.48982165 93.5315281,8.47739146 C93.6409842,8.46081787 93.7197925,8.44838768 93.7767097,8.43595749 L94,9.55053144 C93.8248703,9.60025221 93.6541189,9.63339939 93.4789892,9.65411638 C93.3082378,9.67483336 93.1418646,9.68312016 92.9842478,9.68312016 C92.3975634,9.68312016 91.9509827,9.54638804 91.6401275,9.2770672 C91.3292724,9.00774635 91.1760339,8.61826698 91.1760339,8.11277247 L91.1760339,2.751216 L91.1804121,2.751216 Z" fill="#0000FF"></path>
                </g>
                <path d="M9.49999999,2.33851649 L9.49999999,8.5 L3.83333333,8.5 L3.7,8.6 L0.500000011,11 L0.500000011,2.33851649 L5,0.538516489 Z" id="Path" stroke="#0000FF"></path>
            </g>
        </g>
    </g>
</svg>